<svg xmlns="http://www.w3.org/2000/svg" xmlns:xlink="http://www.w3.org/1999/xlink" width="26.176" height="30.464" viewBox="0 0 26.176 30.464">
  <defs>
    <linearGradient id="linear-gradient" x1="0.5" x2="0.5" y2="1" gradientUnits="objectBoundingBox">
      <stop offset="0" stop-color="#ab88de"/>
      <stop offset="1" stop-color="#5d2e9f"/>
    </linearGradient>
  </defs>
  <g id="Group_293" data-name="Group 293" transform="translate(-1641.708 -2359.393)">
    <path id="Path_237" data-name="Path 237" d="M5.228,2.458C7.122,3.567,6.819,6.427,6.881,8.8c.323,2.385.075,5.469.461,6.858a2.737,2.737,0,0,0,1.823,1.812c.806.208,1.945-.265,1.953-.117s-.426.215-1.785,1.065-2.357,1.989-3.809,1.562c-1.727-.372-2.371-1.405-3.392-3.3A21.4,21.4,0,0,1,.468,9.6C.345,7.342.232,4.281.232,4.281.184,2.788-.046,1.245.008.463.11-.158.532.025.532.025S3.3,1.39,5.228,2.458Z" transform="matrix(-0.454, -0.891, 0.891, -0.454, 1648.448, 2389.856)" fill="url(#linear-gradient)"/>
    <path id="Path_238" data-name="Path 238" d="M4352.694,6956.719c.031.171-1.339.752-1.366,1.568-.282,0-.135,8.818-.087,11.94,0,2.17.31,2.1.555,2.56,1.623,1.671,2.786.683,2.779.929s-1.573.706-2.4,1.7a4.273,4.273,0,0,0-.932,2.151,11.007,11.007,0,0,1-3.448-2.546,11.084,11.084,0,0,1,1.772-16.785A12.8,12.8,0,0,1,4352.694,6956.719Z" transform="translate(-2703.001 -4593.114)" fill="url(#linear-gradient)"/>
    <path id="Path_239" data-name="Path 239" d="M5.358,5.061C5.911,8.146,6.1,9,6.581,11.269s.468,3.669,1.2,4.487a3.133,3.133,0,0,0,3.453.678L8.825,18.521c-1.884,1.654-2.762,1.32-2.762,1.32A5.307,5.307,0,0,1,3.21,17.835c-1.509-1.8-1.971-2.151-2.661-4.49A9.434,9.434,0,0,1,.125,8.574a13.6,13.6,0,0,1,1.512-4.3A11.43,11.43,0,0,1,3.445,1.949,12.264,12.264,0,0,1,6.029,0a4.23,4.23,0,0,0-1.1,1.785A11.778,11.778,0,0,0,5.358,5.061Z" transform="matrix(-0.656, 0.755, -0.755, -0.656, 1667.884, 2372.428)" fill="url(#linear-gradient)"/>
  </g>
</svg>
